{"accessors":[{"bufferView":0,"byteOffset":0,"componentType":5126,"count":42,"max":[1.0,1.0,1.0],"min":[-1.0,-1.0,-1.0],"normalized":false,"type":"VEC3"},{"bufferView":1,"byteOffset":0,"componentType":5126,"count":42,"max":[0.525712430477142,0.525712311267853,1.0,1.0],"min":[-1.0,-1.0,-0.525721848011017,1.0],"normalized":false,"type":"VEC4"},{"bufferView":2,"byteOffset":0,"componentType":5126,"count":42,"max":[1.0,1.0,1.0],"min":[-1.0,-1.0,-1.0],"normalized":false,"type":"VEC3"},{"bufferView":3,"byteOffset":0,"componentType":5126,"count":42,"max":[2.0,1.0],"min":[1.08810412883759,0.0],"normalized":false,"type":"VEC2"},{"bufferView":4,"byteOffset":0,"componentType":5123,"count":240,"max":[41.0],"min":[0.0],"normalized":false,"type":"SCALAR"}],"asset":{"generator":"Godot Engine v4.4.1.stable.official@49a5bc7b616bd04689a2c89e89bda41f50241464","version":"2.0"},"bufferViews":[{"buffer":0,"byteLength":504,"byteOffset":0,"byteStride":12,"target":34962},{"buffer":0,"byteLength":672,"byteOffset":504,"byteStride":16,"target":34962},{"buffer":0,"byteLength":504,"byteOffset":1176,"byteStride":12,"target":34962},{"buffer":0,"byteLength":336,"byteOffset":1680,"byteStride":8,"target":34962},{"buffer":0,"byteLength":480,"byteOffset":2016,"target":34963}],"buffers":[{"byteLength":2496,"uri":"procedural_rock_Bad0.bin"}],"cameras":[{"perspective":{"yfov":1.30899691581726,"zfar":4000.0,"znear":0.0500000007450581},"type":"perspective"}],"extensions":{"KHR_lights_punctual":{"lights":[{"type":"directional"}]}},"extensionsUsed":["GODOT_single_root","KHR_lights_punctual"],"images":[{"uri":"textures%2F_albedo000.png"}],"materials":[{"extensions":{},"pbrMetallicRoughness":{"baseColorFactor":[0.637597024440765,0.0975873097777367,0.0595111325383186,1.0],"baseColorTexture":{"index":0},"metallicFactor":0.0,"roughnessFactor":1.0}}],"meshes":[{"extras":{"targetNames":[]},"primitives":[{"attributes":{"NORMAL":2,"POSITION":0,"TANGENT":1,"TEXCOORD_0":3},"indices":4,"material":0,"mode":4}]}],"nodes":[{"children":[1,2,3,4,5],"name":"ProceduralRock"},{"mesh":0,"name":"IcoRock","rotation":[0.0,0.822724878787994,0.0,0.568439781665802]},{"camera":0,"name":"Camera3D","rotation":[-0.156184494495392,0.0,0.0,0.98772794008255],"translation":[0.0,1.10296750068665,2.16243267059326]},{"name":"MeshDebugger"},{"extensions":{"KHR_lights_punctual":{"light":0}},"name":"DirectionalLight3D","rotation":[0.164514094591141,0.0,0.0,0.986374735832214]},{"children":[6,7,8],"name":"VFlowContainer"},{"name":"CheckButton"},{"name":"Label"},{"name":"ItemList"}],"samplers":[{"magFilter":9729,"minFilter":9987,"wrapS":10497,"wrapT":10497}],"scene":0,"scenes":[{"nodes":[0]}],"textures":[{"sampler":0,"source":0}]}